# xmcd CD database file
#
# Track frame offsets:
#	150
#	19432
#	38804
#	58973
#	77064
#	102872
#	127330
#	149243
#	166832
#	179763
#	197946
#	216202
#	234802
#	246475
#	258487
#	273465
#	282764
#	292585
#	305147
#	319054
#	328988
#	341383
#
# Disc length: 4703 seconds
#
# Revision: 0
# Processed by: cddbd v1.5.2PL0 Copyright (c) Steve Scherf et al.
# Submitted via: CDex 1.51
#
DISCID=64125d16
DTITLE=Gary Burton - Who Is Gary Burton and Subtle Swing
DYEAR=1962
DGENRE=Jazz
TTITLE0=Storm
TTITLE1=I've Just Seen Her
TTITLE2=Fly Time Fly
TTITLE3=Conception
TTITLE4=Get Away Blues
TTITLE5=My Funny Valentine
TTITLE6=One Note
TTITLE7=Time After Time
TTITLE8=Every Time
TTITLE9=Summertime
TTITLE10=Mother Time
TTITLE11=Just In Time
TTITLE12=What Am I To Do?
TTITLE13=Not For Me
TTITLE14=You're Here Again
TTITLE15=Just For Tonight
TTITLE16=Pop Goes The Weasel
TTITLE17=It's Love Of Course
TTITLE18=Unless You're In Love
TTITLE19=Close Your Eyes
TTITLE20=Rainy Afternoon
TTITLE21=Call D. Law
EXTD=YEAR: 1962
EXTT0=
EXTT1=
EXTT2=
EXTT3=
EXTT4=
EXTT5=
EXTT6=
EXTT7=
EXTT8=
EXTT9=
EXTT10=
EXTT11=
EXTT12=
EXTT13=
EXTT14=
EXTT15=
EXTT16=
EXTT17=
EXTT18=
EXTT19=
EXTT20=
EXTT21=
PLAYORDER=
